<svg width="406" height="306" viewBox="0 0 406 306" fill="none" xmlns="http://www.w3.org/2000/svg">
<g clip-path="url(#clip0)">
<path opacity="0.18" d="M47.6829 242.764C47.6829 242.764 7.98857 202.107 19.8942 159.074C31.7998 116.041 63.881 116.005 116.12 75.6811C168.359 35.3568 182.1 -4.99441 263.648 0.503946C345.197 6.0023 399.272 144.37 386.448 181.941C373.625 219.511 362.619 247.921 362.619 247.921L47.6829 242.764Z" fill="#D9B400"/>
<path d="M164.885 47.0915H28.0919C24.8067 47.0915 22.1436 49.7546 22.1436 53.0398V146.467C22.1436 149.752 24.8067 152.415 28.0919 152.415H164.885C168.17 152.415 170.833 149.752 170.833 146.467V53.0398C170.833 49.7546 168.17 47.0915 164.885 47.0915Z" fill="white"/>
<path opacity="0.52" d="M164.885 47.0915H28.0919C24.8067 47.0915 22.1436 49.7546 22.1436 53.0398V146.467C22.1436 149.752 24.8067 152.415 28.0919 152.415H164.885C168.17 152.415 170.833 149.752 170.833 146.467V53.0398C170.833 49.7546 168.17 47.0915 164.885 47.0915Z" fill="#D9B400"/>
<path d="M384.108 235.439H40.7446V242.773H384.108V235.439Z" fill="#D9B400"/>
<path d="M374.839 242.773H47.6919V306H374.839V242.773Z" fill="#D9B400"/>
<path opacity="0.23" d="M374.839 242.773H47.6919V257.892H374.839V242.773Z" fill="url(#paint0_linear)"/>
<path d="M153.69 235.394H75.3364L79.008 217.063H151.395L153.69 235.394Z" fill="#D9B400"/>
<path opacity="0.52" d="M153.537 235.394H79.7642L83.2198 217.063H151.378L153.537 235.394Z" fill="url(#paint1_linear)"/>
<path d="M90.8867 226.067C90.8867 227.323 90.5684 228.31 89.9317 229.029C89.2986 229.748 88.417 230.107 87.2867 230.107C86.1314 230.107 85.239 229.755 84.6095 229.05C83.9836 228.342 83.6706 227.344 83.6706 226.057C83.6706 224.78 83.9854 223.791 84.6149 223.09C85.2444 222.385 86.1386 222.033 87.2974 222.033C88.4241 222.033 89.304 222.391 89.9371 223.106C90.5701 223.821 90.8867 224.808 90.8867 226.067ZM84.6364 226.067C84.6364 227.13 84.8617 227.936 85.3124 228.487C85.7666 229.034 86.4247 229.308 87.2867 229.308C88.1559 229.308 88.8122 229.034 89.2557 228.487C89.6992 227.94 89.921 227.133 89.921 226.067C89.921 225.012 89.6992 224.213 89.2557 223.669C88.8158 223.122 88.163 222.848 87.2974 222.848C86.4283 222.848 85.7666 223.124 85.3124 223.675C84.8617 224.222 84.6364 225.019 84.6364 226.067ZM96.3001 228.396C96.3001 228.943 96.0962 229.365 95.6884 229.662C95.2807 229.959 94.7084 230.107 93.9716 230.107C93.1919 230.107 92.5838 229.984 92.1475 229.737V228.911C92.43 229.054 92.7323 229.167 93.0542 229.249C93.3797 229.331 93.6926 229.372 93.9931 229.372C94.458 229.372 94.8157 229.299 95.0661 229.152C95.3165 229.002 95.4416 228.775 95.4416 228.471C95.4416 228.242 95.3415 228.047 95.1412 227.886C94.9445 227.722 94.5582 227.528 93.9823 227.307C93.4351 227.103 93.0452 226.926 92.8128 226.776C92.5838 226.622 92.4122 226.448 92.2977 226.255C92.1868 226.062 92.1314 225.831 92.1314 225.563C92.1314 225.084 92.3263 224.706 92.7162 224.431C93.106 224.152 93.6408 224.013 94.3203 224.013C94.9534 224.013 95.5722 224.141 96.1767 224.399L95.8601 225.123C95.27 224.88 94.7352 224.758 94.256 224.758C93.8339 224.758 93.5156 224.824 93.301 224.957C93.0864 225.089 92.9791 225.272 92.9791 225.504C92.9791 225.661 93.0184 225.796 93.0971 225.906C93.1794 226.017 93.3099 226.123 93.4888 226.223C93.6676 226.323 94.011 226.468 94.5189 226.658C95.2163 226.911 95.6867 227.167 95.9299 227.425C96.1767 227.682 96.3001 228.006 96.3001 228.396ZM101.547 228.396C101.547 228.943 101.343 229.365 100.936 229.662C100.528 229.959 99.9555 230.107 99.2187 230.107C98.4389 230.107 97.8309 229.984 97.3945 229.737V228.911C97.6771 229.054 97.9793 229.167 98.3012 229.249C98.6267 229.331 98.9397 229.372 99.2401 229.372C99.7051 229.372 100.063 229.299 100.313 229.152C100.564 229.002 100.689 228.775 100.689 228.471C100.689 228.242 100.589 228.047 100.388 227.886C100.192 227.722 99.8053 227.528 99.2294 227.307C98.6822 227.103 98.2923 226.926 98.0598 226.776C97.8309 226.622 97.6592 226.448 97.5448 226.255C97.4339 226.062 97.3784 225.831 97.3784 225.563C97.3784 225.084 97.5734 224.706 97.9632 224.431C98.3531 224.152 98.8878 224.013 99.5674 224.013C100.2 224.013 100.819 224.141 101.424 224.399L101.107 225.123C100.517 224.88 99.9823 224.758 99.503 224.758C99.081 224.758 98.7626 224.824 98.548 224.957C98.3334 225.089 98.2261 225.272 98.2261 225.504C98.2261 225.661 98.2655 225.796 98.3442 225.906C98.4264 226.017 98.557 226.123 98.7358 226.223C98.9146 226.323 99.258 226.468 99.7659 226.658C100.463 226.911 100.934 227.167 101.177 227.425C101.424 227.682 101.547 228.006 101.547 228.396ZM110.496 230V226.175C110.496 225.706 110.396 225.356 110.196 225.123C109.995 224.887 109.684 224.769 109.262 224.769C108.708 224.769 108.298 224.928 108.034 225.247C107.769 225.565 107.636 226.055 107.636 226.717V230H106.746V226.175C106.746 225.706 106.646 225.356 106.445 225.123C106.245 224.887 105.932 224.769 105.507 224.769C104.949 224.769 104.539 224.937 104.278 225.273C104.02 225.606 103.892 226.153 103.892 226.915V230H103.001V224.12H103.725L103.87 224.925H103.913C104.081 224.638 104.317 224.415 104.621 224.254C104.929 224.093 105.272 224.013 105.651 224.013C106.571 224.013 107.172 224.345 107.454 225.01H107.497C107.672 224.703 107.926 224.46 108.259 224.281C108.591 224.102 108.971 224.013 109.396 224.013C110.062 224.013 110.559 224.184 110.888 224.528C111.22 224.867 111.387 225.413 111.387 226.164V230H110.496ZM116.843 230L116.666 229.163H116.623C116.33 229.531 116.036 229.782 115.743 229.914C115.453 230.043 115.09 230.107 114.654 230.107C114.071 230.107 113.613 229.957 113.281 229.657C112.952 229.356 112.787 228.929 112.787 228.374C112.787 227.187 113.737 226.565 115.636 226.507L116.634 226.475V226.11C116.634 225.649 116.534 225.309 116.333 225.091C116.137 224.869 115.82 224.758 115.384 224.758C114.894 224.758 114.339 224.909 113.721 225.209L113.447 224.528C113.737 224.37 114.053 224.247 114.397 224.157C114.743 224.068 115.09 224.023 115.437 224.023C116.138 224.023 116.657 224.179 116.993 224.49C117.333 224.801 117.503 225.3 117.503 225.987V230H116.843ZM114.831 229.372C115.385 229.372 115.82 229.22 116.135 228.916C116.453 228.612 116.612 228.187 116.612 227.639V227.108L115.722 227.146C115.014 227.171 114.502 227.282 114.187 227.478C113.876 227.672 113.721 227.974 113.721 228.385C113.721 228.707 113.817 228.952 114.01 229.12C114.207 229.288 114.481 229.372 114.831 229.372ZM123.367 230V226.196C123.367 225.717 123.258 225.359 123.04 225.123C122.821 224.887 122.48 224.769 122.015 224.769C121.4 224.769 120.949 224.935 120.663 225.268C120.377 225.601 120.234 226.15 120.234 226.915V230H119.343V224.12H120.067L120.212 224.925H120.255C120.438 224.635 120.693 224.411 121.022 224.254C121.351 224.093 121.718 224.013 122.122 224.013C122.83 224.013 123.363 224.184 123.721 224.528C124.079 224.867 124.258 225.413 124.258 226.164V230H123.367ZM135.889 226.067C135.889 227.323 135.571 228.31 134.934 229.029C134.301 229.748 133.419 230.107 132.289 230.107C131.134 230.107 130.241 229.755 129.612 229.05C128.986 228.342 128.673 227.344 128.673 226.057C128.673 224.78 128.988 223.791 129.617 223.09C130.247 222.385 131.141 222.033 132.3 222.033C133.426 222.033 134.306 222.391 134.939 223.106C135.573 223.821 135.889 224.808 135.889 226.067ZM129.639 226.067C129.639 227.13 129.864 227.936 130.315 228.487C130.769 229.034 131.427 229.308 132.289 229.308C133.158 229.308 133.815 229.034 134.258 228.487C134.702 227.94 134.923 227.133 134.923 226.067C134.923 225.012 134.702 224.213 134.258 223.669C133.818 223.122 133.165 222.848 132.3 222.848C131.431 222.848 130.769 223.124 130.315 223.675C129.864 224.222 129.639 225.019 129.639 226.067ZM137.381 229.431C137.381 229.192 137.434 229.011 137.542 228.889C137.652 228.764 137.81 228.702 138.014 228.702C138.221 228.702 138.382 228.764 138.497 228.889C138.615 229.011 138.674 229.192 138.674 229.431C138.674 229.664 138.615 229.843 138.497 229.968C138.378 230.093 138.218 230.156 138.014 230.156C137.831 230.156 137.679 230.1 137.558 229.989C137.44 229.875 137.381 229.689 137.381 229.431ZM146.786 222.859C145.924 222.859 145.242 223.147 144.741 223.723C144.244 224.295 143.996 225.08 143.996 226.078C143.996 227.105 144.235 227.899 144.715 228.46C145.198 229.018 145.884 229.297 146.775 229.297C147.322 229.297 147.946 229.199 148.647 229.002V229.801C148.104 230.005 147.433 230.107 146.635 230.107C145.48 230.107 144.588 229.757 143.958 229.056C143.332 228.355 143.019 227.359 143.019 226.067C143.019 225.259 143.169 224.551 143.47 223.943C143.774 223.335 144.21 222.866 144.779 222.537C145.351 222.208 146.024 222.044 146.796 222.044C147.619 222.044 148.338 222.194 148.953 222.494L148.567 223.278C147.973 222.999 147.379 222.859 146.786 222.859ZM150.096 229.431C150.096 229.192 150.149 229.011 150.257 228.889C150.368 228.764 150.525 228.702 150.729 228.702C150.936 228.702 151.097 228.764 151.212 228.889C151.33 229.011 151.389 229.192 151.389 229.431C151.389 229.664 151.33 229.843 151.212 229.968C151.094 230.093 150.933 230.156 150.729 230.156C150.547 230.156 150.394 230.1 150.273 229.989C150.155 229.875 150.096 229.689 150.096 229.431Z" fill="black"/>
<path d="M152.539 212.411C152.539 212.411 154.149 166.597 163.337 162.017C172.525 157.436 210.303 159.263 218.546 161.558C226.789 163.853 233.385 196.546 235.5 201.648C239.396 211.034 254.056 216.308 254.056 216.308L252.679 235.547L165.632 235.097C165.632 235.097 155.292 233.028 152.539 212.411Z" fill="#D9B400"/>
<path d="M179.103 160.262C178.53 161.129 178.305 162.18 178.473 163.205C178.78 166.079 179.961 168.79 181.857 170.971C183.754 173.134 186.044 174.917 188.606 176.226C189.416 174.228 190.064 170.737 191.747 170.125C193.55 169.712 195.373 169.394 197.209 169.171C197.317 169.027 192.224 168.271 192.053 168.199C188.867 167.416 186.609 165.437 184.44 162.971C183.893 162.399 183.424 161.758 183.045 161.063C182.604 160.163 182.982 158.948 181.722 159.065C181.228 159.083 180.743 159.198 180.294 159.403C179.844 159.609 179.44 159.9 179.103 160.262V160.262Z" fill="url(#paint2_linear)"/>
<path d="M204.787 172.258C205.048 172.564 205.434 172.906 205.794 172.735C205.919 172.658 206.022 172.549 206.091 172.42C206.91 171.052 207.181 169.425 206.847 167.866C206.516 166.318 205.938 164.832 205.137 163.466C204.465 162.142 203.627 160.908 202.645 159.794C202.177 159.299 201.385 158.822 200.845 159.263C200.635 159.477 200.497 159.751 200.449 160.046C200.044 161.639 196.238 167.731 197.191 169.171C197.56 169.738 201.529 169.378 202.195 169.828C203.164 170.517 204.036 171.335 204.787 172.258V172.258Z" fill="url(#paint3_linear)"/>
<path d="M209.79 127.281C209.61 124.806 204.579 123.726 203.778 121.882L211.418 121.576C211.418 121.576 212.318 131.628 208.719 136.541L207.936 134.633C208.881 129.954 210.195 133.04 209.79 127.281Z" fill="#984E45"/>
<path d="M185.457 144.001L182.649 161.153C182.649 161.153 188.948 170.386 196.921 169.009C204.894 167.632 201.961 163.736 201.961 163.736L200.989 149.184C200.989 149.184 194.681 150.687 185.457 144.001Z" fill="#F7AD7E"/>
<path opacity="0.52" d="M184.467 150.021L185.457 144.001C194.681 150.687 199.45 147.844 199.45 147.844L201.682 155.628C200.332 156.951 201.979 161.729 196.633 161.189C192.224 160.757 188.057 154.764 184.467 150.021Z" fill="url(#paint4_linear)"/>
<path d="M178.248 131.547C178.923 141.067 188.678 157.877 198.199 157.194C207.72 156.51 210.465 136.838 209.79 127.317C209.115 117.796 203.769 112.379 194.221 113.054C191.958 113.218 189.749 113.827 187.721 114.845C185.693 115.864 183.885 117.272 182.402 118.989C180.918 120.707 179.788 122.7 179.075 124.854C178.363 127.009 178.082 129.283 178.248 131.547V131.547Z" fill="#F7AD7E"/>
<path d="M186.123 113.297C186.708 113.144 186.888 112.685 187.617 112.064C190.451 109.634 194.447 109.166 198.028 109.553C206.973 110.534 209.034 116.842 211.392 115.852C213.749 114.862 218.042 118.606 215.117 122.854C212.193 127.101 207.432 128.253 201.619 125.427C197.893 123.627 192.737 122.197 188.597 123.241C188.269 123.278 187.952 123.384 187.667 123.551C187.381 123.718 187.134 123.944 186.942 124.212C186.366 125.346 186.645 127.569 186.681 128.811C186.834 131.845 187.204 134.864 187.787 137.846C187.311 137.891 186.96 137.423 186.744 136.991C186.213 135.965 185.844 134.858 185.358 133.823C184.782 132.653 183.711 130.8 182.235 131.754C181.866 132.037 181.557 132.392 181.326 132.797C181.096 133.202 180.949 133.649 180.894 134.111C180.471 136.145 180.795 139.07 182.487 140.5C183.846 141.643 184.242 143.812 184.566 145.459C184.674 145.981 185.205 147.349 185.007 147.826C184.647 148.672 183.405 148.582 182.766 148.069C182.05 147.332 181.587 146.386 181.443 145.369C180.217 140.544 178.448 135.874 176.17 131.448C175.599 130.446 175.126 129.391 174.757 128.298C174.185 125.854 174.364 123.295 175.27 120.955C175.943 118.527 177.295 116.342 179.167 114.656C181.272 112.955 183.063 113.207 185.466 113.324C185.685 113.349 185.906 113.34 186.123 113.297V113.297Z" fill="#984E45"/>
<path opacity="0.23" d="M189.884 234.179L191.261 216.308L176.602 214.247L172.012 189.275C172.012 189.275 188.966 204.852 203.221 204.438C217.475 204.024 219.257 198.481 219.257 198.481L221.956 233.765L189.884 234.179Z" fill="url(#paint5_linear)"/>
<path d="M192.665 169.819L194.572 173.032L197.398 175.551L202.437 230.535L212.21 230.229L200.071 174.939L201.52 169.54C201.52 169.54 195.409 168.757 192.665 169.819Z" fill="url(#paint6_linear)"/>
<path d="M188.201 222.877C188.201 222.877 200.422 213.104 204.696 214.319C208.971 215.534 213.56 220.123 213.866 221.653C214.172 223.183 212.067 225.621 209.583 225.927C207.099 226.233 204.391 228.375 202.87 227.727C201.349 227.079 197.677 227.727 196.148 229.527C194.618 231.327 187.59 233.801 187.59 233.801C187.59 233.801 183.009 227.457 188.201 222.877Z" fill="#F7AD7E"/>
<path d="M194.807 235.619H283.95C286.45 235.619 288.477 233.593 288.477 231.093C288.477 228.593 286.45 226.566 283.95 226.566H194.807C192.307 226.566 190.28 228.593 190.28 231.093C190.28 233.593 192.307 235.619 194.807 235.619Z" fill="#D9B400"/>
<path d="M194.807 235.619H283.95C286.45 235.619 288.477 233.593 288.477 231.093C288.477 228.593 286.45 226.566 283.95 226.566H194.807C192.307 226.566 190.28 228.593 190.28 231.093C190.28 233.593 192.307 235.619 194.807 235.619Z" fill="url(#paint7_linear)"/>
<path d="M229.317 226.935L230.802 231.741L294.11 235.619L312.153 189.86C312.393 189.25 312.481 188.591 312.409 187.94C312.336 187.289 312.106 186.666 311.738 186.124C311.37 185.582 310.875 185.138 310.297 184.831C309.718 184.524 309.073 184.363 308.418 184.361H254.739C252.139 184.363 249.6 185.146 247.451 186.61C245.302 188.073 243.643 190.149 242.69 192.568L229.317 226.935Z" fill="#D9B400"/>
<path d="M229.317 226.935L230.802 231.741L294.11 235.619L312.153 189.86C312.393 189.25 312.481 188.591 312.409 187.94C312.336 187.289 312.106 186.666 311.738 186.124C311.37 185.582 310.875 185.138 310.297 184.831C309.718 184.524 309.073 184.363 308.418 184.361H254.739C252.139 184.363 249.6 185.146 247.451 186.61C245.302 188.073 243.643 190.149 242.69 192.568L229.317 226.935Z" fill="url(#paint8_linear)"/>
<path d="M229.183 235.673H294.164L311.262 192.208C311.491 191.63 311.575 191.004 311.507 190.386C311.438 189.767 311.22 189.175 310.87 188.661C310.521 188.146 310.051 187.725 309.501 187.433C308.951 187.142 308.339 186.989 307.716 186.989H256.755C254.286 186.989 251.873 187.732 249.831 189.122C247.79 190.512 246.214 192.484 245.309 194.782L229.183 235.673Z" fill="#D9B400"/>
<path d="M229.183 235.673H294.164L311.262 192.208C311.491 191.63 311.575 191.004 311.507 190.386C311.438 189.767 311.22 189.175 310.87 188.661C310.521 188.146 310.051 187.725 309.501 187.433C308.951 187.142 308.339 186.989 307.716 186.989H256.755C254.286 186.989 251.873 187.732 249.831 189.122C247.79 190.512 246.214 192.484 245.309 194.782L229.183 235.673Z" fill="url(#paint9_linear)"/>
<path d="M357.696 150.606C359.011 148.431 360.011 146.08 360.666 143.623L365.912 142.615L365.966 136.811L366.02 131.007L360.792 129.909C360.182 127.442 359.228 125.073 357.957 122.872L360.954 118.453L356.886 114.314L352.828 110.165L348.328 113.081C346.154 111.772 343.806 110.776 341.354 110.12L340.346 104.874L334.542 104.811L328.738 104.757L327.649 109.949C325.185 110.569 322.817 111.523 320.612 112.784L316.193 109.787L312.054 113.855L307.914 117.922L310.83 122.422C309.515 124.597 308.515 126.948 307.86 129.405L302.614 130.413L302.56 136.217L302.506 142.021L307.734 143.119C308.344 145.586 309.299 147.955 310.569 150.156L307.608 154.584L311.676 158.723L315.743 162.872L320.243 159.956C322.418 161.263 324.766 162.26 327.217 162.917L328.225 168.163L334.029 168.226L339.833 168.28L340.904 163.043C343.37 162.432 345.738 161.481 347.942 160.217L352.36 163.214L356.5 159.146L360.639 155.079L357.696 150.606ZM324.103 146.485C322.131 144.475 320.799 141.926 320.275 139.159C319.752 136.393 320.06 133.533 321.162 130.942C322.264 128.35 324.109 126.144 326.465 124.602C328.821 123.059 331.581 122.25 334.397 122.277C337.212 122.303 339.957 123.164 342.283 124.75C344.61 126.336 346.414 128.577 347.467 131.189C348.52 133.8 348.774 136.665 348.199 139.421C347.624 142.178 346.244 144.702 344.234 146.674C342.9 147.984 341.321 149.019 339.588 149.718C337.854 150.418 335.999 150.769 334.129 150.752C332.26 150.734 330.412 150.348 328.692 149.616C326.971 148.884 325.412 147.82 324.103 146.485V146.485Z" fill="#D9B400"/>
<path d="M305.313 119.713C306.186 118.262 306.849 116.696 307.284 115.06L310.776 114.395V110.525V106.664L307.302 105.927C306.892 104.287 306.256 102.712 305.412 101.247L307.41 98.3044L304.71 95.5418L302.011 92.7881L299.032 94.7229C297.584 93.8526 296.021 93.1892 294.389 92.7521L293.714 89.2605H289.853H285.984L285.255 92.7431C283.61 93.1443 282.032 93.7776 280.566 94.6239L277.624 92.6351L274.87 95.3348L272.107 98.0345L274.051 101.013C273.18 102.465 272.514 104.031 272.071 105.666L268.58 106.331V110.201V114.062L272.062 114.799C272.472 116.439 273.108 118.014 273.952 119.479L271.954 122.422L274.654 125.184L277.354 127.938L280.332 125.994C281.778 126.871 283.342 127.537 284.976 127.974L285.651 131.466H289.511H293.372L294.11 127.983C295.752 127.576 297.33 126.943 298.798 126.102L301.732 128.091L304.494 125.391L307.248 122.692L305.313 119.713ZM282.942 117.013C281.629 115.676 280.742 113.979 280.394 112.137C280.045 110.296 280.251 108.392 280.984 106.667C281.718 104.943 282.946 103.474 284.514 102.448C286.082 101.421 287.92 100.883 289.794 100.9C291.668 100.918 293.495 101.491 295.043 102.547C296.592 103.603 297.792 105.094 298.493 106.832C299.194 108.57 299.364 110.477 298.981 112.312C298.598 114.147 297.679 115.827 296.341 117.139C294.542 118.893 292.119 119.861 289.606 119.829C287.093 119.797 284.696 118.768 282.942 116.968V117.013Z" fill="#D9B400"/>
<path d="M27.0662 137.522L26.0493 136.235L57.4646 111.425L86.2522 120.37L117.101 90.8713L141.434 94.4079L162.788 69.8138L164.021 70.8937L142.082 96.1537L117.659 92.6081L86.6842 122.224L57.7976 113.252L27.0662 137.522Z" fill="white"/>
<path d="M90.8059 120.748C90.9148 121.606 90.7667 122.477 90.3804 123.251C89.9941 124.025 89.3869 124.667 88.6356 125.096C87.8843 125.525 87.0226 125.722 86.1597 125.661C85.2967 125.6 84.4712 125.285 83.7875 124.755C83.1038 124.225 82.5926 123.504 82.3187 122.683C82.0448 121.862 82.0205 120.979 82.2487 120.144C82.4769 119.31 82.9475 118.562 83.6009 117.995C84.2543 117.428 85.0612 117.068 85.9195 116.959C87.0698 116.814 88.2307 117.132 89.147 117.842C90.0633 118.552 90.66 119.598 90.8059 120.748V120.748Z" fill="#D9B400"/>
<path d="M61.8832 112.172C61.9903 113.03 61.8406 113.901 61.453 114.674C61.0654 115.447 60.4574 116.087 59.7057 116.515C58.954 116.943 58.0924 117.138 57.2299 117.076C56.3673 117.014 55.5425 116.697 54.8597 116.167C54.1768 115.636 53.6667 114.915 53.3936 114.094C53.1206 113.274 53.0969 112.391 53.3257 111.557C53.5544 110.723 54.0252 109.975 54.6787 109.409C55.3321 108.842 56.1388 108.482 56.9968 108.374C58.1481 108.232 59.3089 108.551 60.2249 109.263C61.1408 109.975 61.7372 111.021 61.8832 112.172Z" fill="#D9B400"/>
<path d="M87.1341 126.453C86.1131 126.584 85.0761 126.409 84.1545 125.95C83.2329 125.492 82.4682 124.77 81.9571 123.876C81.4461 122.982 81.2117 121.957 81.2837 120.93C81.3557 119.903 81.7308 118.921 82.3615 118.107C82.9922 117.294 83.8502 116.686 84.8267 116.36C85.8033 116.034 86.8546 116.006 87.8474 116.278C88.8402 116.55 89.73 117.11 90.404 117.889C91.078 118.667 91.5059 119.627 91.6336 120.649C91.8019 122.014 91.4233 123.391 90.5803 124.478C89.7374 125.566 88.4985 126.276 87.1341 126.453V126.453ZM86.0363 117.769C85.3251 117.849 84.6538 118.139 84.1084 118.603C83.5629 119.066 83.168 119.682 82.974 120.37C82.78 121.059 82.7957 121.79 83.0193 122.47C83.2428 123.15 83.6639 123.748 84.2289 124.187C84.7938 124.627 85.4769 124.888 86.1909 124.937C86.9049 124.986 87.6174 124.822 88.2373 124.464C88.8573 124.107 89.3566 123.572 89.6714 122.93C89.9862 122.287 90.1023 121.565 90.0048 120.856C89.8769 119.922 89.3876 119.075 88.6422 118.498C87.8967 117.921 86.9546 117.659 86.0183 117.769H86.0363Z" fill="white"/>
<path d="M121.681 91.4652C121.79 92.3235 121.642 93.1947 121.255 93.9688C120.869 94.7428 120.262 95.3849 119.511 95.8139C118.759 96.2428 117.898 96.4392 117.035 96.3784C116.172 96.3176 115.346 96.0021 114.662 95.4721C113.979 94.942 113.468 94.221 113.194 93.4004C112.92 92.5798 112.895 91.6964 113.124 90.862C113.352 90.0275 113.822 89.2795 114.476 88.7125C115.129 88.1455 115.936 87.785 116.795 87.6767C117.364 87.6036 117.943 87.6436 118.497 87.7946C119.051 87.9456 119.57 88.2045 120.024 88.5565C120.478 88.9084 120.858 89.3465 121.143 89.8457C121.427 90.3449 121.61 90.8952 121.681 91.4652V91.4652Z" fill="#D9B400"/>
<path d="M117.992 97.1706C116.97 97.3015 115.933 97.1266 115.012 96.6678C114.09 96.2091 113.326 95.4872 112.815 94.5935C112.304 93.6999 112.069 92.6747 112.141 91.6477C112.213 90.6208 112.588 89.6383 113.219 88.8247C113.85 88.0111 114.708 87.4029 115.684 87.0772C116.661 86.7515 117.712 86.723 118.705 86.9951C119.698 87.2672 120.587 87.8279 121.261 88.606C121.935 89.3841 122.363 90.3448 122.491 91.3663C122.659 92.7318 122.281 94.1085 121.438 95.1959C120.595 96.2833 119.356 96.9932 117.992 97.1706V97.1706ZM116.903 88.4866C116.191 88.5666 115.52 88.8569 114.975 89.3202C114.429 89.7836 114.034 90.399 113.84 91.0879C113.646 91.7768 113.662 92.5079 113.886 93.1878C114.109 93.8677 114.53 94.4655 115.095 94.9049C115.66 95.3443 116.343 95.6053 117.057 95.6546C117.771 95.7039 118.484 95.5392 119.104 95.1816C119.724 94.824 120.223 94.2897 120.538 93.647C120.853 93.0043 120.969 92.2823 120.871 91.5732C120.813 91.11 120.665 90.6626 120.434 90.2568C120.203 89.8509 119.895 89.4945 119.526 89.2079C119.158 88.9212 118.736 88.71 118.286 88.5862C117.836 88.4625 117.366 88.4286 116.903 88.4866V88.4866Z" fill="white"/>
<path d="M145.87 94.5789C145.977 95.437 145.827 96.3076 145.44 97.0807C145.052 97.8537 144.444 98.4945 143.692 98.9221C142.941 99.3496 142.079 99.5447 141.217 99.4827C140.354 99.4207 139.529 99.1044 138.846 98.5738C138.164 98.0431 137.653 97.3219 137.38 96.5014C137.107 95.6808 137.084 94.7978 137.312 93.9638C137.541 93.1298 138.012 92.3823 138.665 91.8159C139.319 91.2494 140.126 90.8894 140.984 90.7813C142.134 90.6411 143.294 90.9617 144.209 91.6731C145.125 92.3845 145.722 93.4291 145.87 94.5789V94.5789Z" fill="#D9B400"/>
<path d="M142.181 100.275C141.162 100.404 140.128 100.228 139.209 99.7692C138.29 99.3104 137.528 98.5895 137.019 97.6976C136.51 96.8057 136.277 95.7829 136.349 94.7586C136.422 93.7342 136.796 92.7543 137.425 91.9427C138.054 91.1311 138.91 90.5242 139.884 90.1989C140.858 89.8736 141.907 89.8444 142.897 90.115C143.888 90.3856 144.776 90.9439 145.449 91.7192C146.123 92.4946 146.551 93.4521 146.68 94.4709C146.851 95.8369 146.473 97.2148 145.63 98.3028C144.786 99.3908 143.546 100.1 142.181 100.275V100.275ZM141.128 91.6002C140.43 91.6878 139.774 91.9804 139.242 92.441C138.711 92.9016 138.328 93.5096 138.142 94.1879C137.956 94.8662 137.976 95.5844 138.198 96.2516C138.421 96.9189 138.836 97.5051 139.392 97.9361C139.948 98.3671 140.619 98.6235 141.32 98.673C142.022 98.7224 142.722 98.5626 143.333 98.2137C143.944 97.8649 144.437 97.3428 144.751 96.7133C145.065 96.0839 145.185 95.3755 145.096 94.6779C145.038 94.2149 144.89 93.7679 144.659 93.3625C144.428 92.9571 144.119 92.6012 143.751 92.3153C143.382 92.0294 142.961 91.8191 142.51 91.6964C142.06 91.5736 141.59 91.541 141.128 91.6002V91.6002Z" fill="white"/>
<path d="M58.2206 117.895C57.1995 118.026 56.1625 117.851 55.2409 117.392C54.3193 116.934 53.5546 116.212 53.0436 115.318C52.5325 114.424 52.2982 113.399 52.3702 112.372C52.4421 111.345 52.8172 110.363 53.4479 109.549C54.0787 108.736 54.9366 108.128 55.9132 107.802C56.8897 107.476 57.941 107.448 58.9338 107.72C59.9266 107.992 60.8164 108.552 61.4904 109.331C62.1644 110.109 62.5923 111.069 62.72 112.091C62.8883 113.456 62.5097 114.833 61.6668 115.92C60.8238 117.008 59.585 117.718 58.2206 117.895V117.895ZM57.1227 109.211C56.4115 109.291 55.7403 109.581 55.1948 110.045C54.6493 110.508 54.2544 111.124 54.0604 111.812C53.8664 112.501 53.8822 113.232 54.1057 113.912C54.3292 114.592 54.7503 115.19 55.3153 115.629C55.8802 116.069 56.5633 116.33 57.2773 116.379C57.9913 116.428 58.7038 116.264 59.3238 115.906C59.9437 115.549 60.443 115.014 60.7578 114.372C61.0726 113.729 61.1887 113.007 61.0912 112.298C61.0334 111.835 60.8848 111.387 60.6541 110.981C60.4233 110.575 60.1149 110.219 59.7463 109.932C59.3778 109.646 58.9564 109.435 58.5063 109.311C58.0561 109.187 57.5859 109.153 57.1227 109.211V109.211Z" fill="white"/>
</g>
<defs>
<linearGradient id="paint0_linear" x1="210.006" y1="217.909" x2="213.533" y2="308.961" gradientUnits="userSpaceOnUse">
<stop offset="0.01"/>
<stop offset="0.83" stop-opacity="0.07"/>
<stop offset="1" stop-opacity="0"/>
</linearGradient>
<linearGradient id="paint1_linear" x1="8720.09" y1="4173.77" x2="8659.63" y2="5734.39" gradientUnits="userSpaceOnUse">
<stop offset="0.01"/>
<stop offset="0.83" stop-opacity="0.07"/>
<stop offset="1" stop-opacity="0"/>
</linearGradient>
<linearGradient id="paint2_linear" x1="179.265" y1="184.073" x2="191.486" y2="157.346" gradientUnits="userSpaceOnUse">
<stop offset="0.01"/>
<stop offset="0.12" stop-opacity="0.75"/>
<stop offset="1" stop-opacity="0"/>
</linearGradient>
<linearGradient id="paint3_linear" x1="2370.16" y1="2844.11" x2="2189.17" y2="2809.91" gradientUnits="userSpaceOnUse">
<stop offset="0.01"/>
<stop offset="0.12" stop-opacity="0.75"/>
<stop offset="1" stop-opacity="0"/>
</linearGradient>
<linearGradient id="paint4_linear" x1="3436.37" y1="2799.19" x2="3686.58" y2="3698.33" gradientUnits="userSpaceOnUse">
<stop offset="0.01"/>
<stop offset="0.83" stop-opacity="0.07"/>
<stop offset="1" stop-opacity="0"/>
</linearGradient>
<linearGradient id="paint5_linear" x1="10208.3" y1="14368.8" x2="10146.9" y2="8766.81" gradientUnits="userSpaceOnUse">
<stop offset="0.01"/>
<stop offset="0.83" stop-opacity="0.07"/>
<stop offset="1" stop-opacity="0"/>
</linearGradient>
<linearGradient id="paint6_linear" x1="3924.92" y1="14380.3" x2="4819.22" y2="14361.1" gradientUnits="userSpaceOnUse">
<stop offset="0.01"/>
<stop offset="0.12" stop-opacity="0.75"/>
<stop offset="1" stop-opacity="0"/>
</linearGradient>
<linearGradient id="paint7_linear" x1="24440.9" y1="2719.56" x2="24441.3" y2="2529.45" gradientUnits="userSpaceOnUse">
<stop offset="0.01"/>
<stop offset="0.12" stop-opacity="0.75"/>
<stop offset="1" stop-opacity="0"/>
</linearGradient>
<linearGradient id="paint8_linear" x1="22770.3" y1="10555.9" x2="23533.2" y2="14719.2" gradientUnits="userSpaceOnUse">
<stop offset="0.01"/>
<stop offset="0.12" stop-opacity="0.75"/>
<stop offset="1" stop-opacity="0"/>
</linearGradient>
<linearGradient id="paint9_linear" x1="23282.2" y1="14224.6" x2="23371.8" y2="10380" gradientUnits="userSpaceOnUse">
<stop offset="0.01"/>
<stop offset="0.12" stop-opacity="0.75"/>
<stop offset="1" stop-opacity="0"/>
</linearGradient>
<clipPath id="clip0">
<rect width="406" height="306" fill="white"/>
</clipPath>
</defs>
</svg>
