<svg width="406" height="306" viewBox="0 0 406 306" fill="none" xmlns="http://www.w3.org/2000/svg">
<g clip-path="url(#clip0)">
<path opacity="0.18" d="M47.6829 242.764C47.6829 242.764 7.98857 202.107 19.8942 159.074C31.7998 116.041 63.881 116.005 116.12 75.6811C168.359 35.3568 182.1 -4.99441 263.648 0.503942C345.197 6.0023 399.272 144.37 386.448 181.941C373.625 219.511 362.619 247.921 362.619 247.921L47.6829 242.764Z" fill="#2D01BC"/>
<path d="M164.885 47.0915H28.0919C24.8067 47.0915 22.1436 49.7546 22.1436 53.0398V146.467C22.1436 149.752 24.8067 152.415 28.0919 152.415H164.885C168.17 152.415 170.833 149.752 170.833 146.467V53.0398C170.833 49.7546 168.17 47.0915 164.885 47.0915Z" fill="white"/>
<path opacity="0.52" d="M164.885 47.0915H28.0919C24.8067 47.0915 22.1436 49.7546 22.1436 53.0398V146.467C22.1436 149.752 24.8067 152.415 28.0919 152.415H164.885C168.17 152.415 170.833 149.752 170.833 146.467V53.0398C170.833 49.7546 168.17 47.0915 164.885 47.0915Z" fill="#2D01BC"/>
<path d="M384.108 235.439H40.7446V242.773H384.108V235.439Z" fill="#2D01BC"/>
<path d="M374.839 242.773H47.6919V306H374.839V242.773Z" fill="#2D01BC"/>
<path opacity="0.23" d="M374.839 242.773H47.6919V257.892H374.839V242.773Z" fill="url(#paint0_linear)"/>
<path d="M153.69 235.394H75.3364L79.008 217.063H151.395L153.69 235.394Z" fill="#2D01BC"/>
<path opacity="0.52" d="M153.537 235.394H79.7642L83.2198 217.063H151.378L153.537 235.394Z" fill="url(#paint1_linear)"/>
<path d="M90.9156 227.346C90.9156 228.112 90.7868 228.781 90.5293 229.353C90.2718 229.922 89.907 230.356 89.4348 230.657C88.9627 230.957 88.4119 231.107 87.7824 231.107C87.1672 231.107 86.6217 230.957 86.146 230.657C85.6703 230.353 85.3001 229.922 85.0355 229.364C84.7744 228.802 84.6402 228.153 84.6331 227.416V226.853C84.6331 226.102 84.7636 225.438 85.0247 224.862C85.2858 224.286 85.6542 223.847 86.1299 223.543C86.6092 223.235 87.1565 223.081 87.7717 223.081C88.3976 223.081 88.9484 223.233 89.4241 223.537C89.9034 223.838 90.2718 224.276 90.5293 224.852C90.7868 225.424 90.9156 226.091 90.9156 226.853V227.346ZM89.8909 226.842C89.8909 225.916 89.7049 225.206 89.3329 224.712C88.9609 224.215 88.4405 223.966 87.7717 223.966C87.1207 223.966 86.6074 224.215 86.2319 224.712C85.8599 225.206 85.6685 225.892 85.6578 226.772V227.346C85.6578 228.244 85.8456 228.951 86.2211 229.466C86.6003 229.977 87.1207 230.233 87.7824 230.233C88.4477 230.233 88.9627 229.991 89.3275 229.509C89.6924 229.022 89.8801 228.326 89.8909 227.421V226.842ZM95.6852 229.46C95.6852 229.192 95.5832 228.985 95.3794 228.838C95.1791 228.688 94.8268 228.559 94.3224 228.452C93.8217 228.344 93.4229 228.216 93.126 228.065C92.8327 227.915 92.6145 227.736 92.4715 227.529C92.332 227.321 92.2622 227.075 92.2622 226.788C92.2622 226.313 92.4625 225.91 92.8631 225.581C93.2673 225.252 93.7823 225.088 94.4083 225.088C95.0664 225.088 95.5993 225.258 96.0071 225.597C96.4184 225.937 96.6241 226.372 96.6241 226.901H95.6262C95.6262 226.629 95.5099 226.395 95.2774 226.198C95.0485 226.002 94.7588 225.903 94.4083 225.903C94.047 225.903 93.7645 225.982 93.5606 226.139C93.3567 226.297 93.2548 226.502 93.2548 226.756C93.2548 226.996 93.3496 227.176 93.5391 227.298C93.7287 227.42 94.0703 227.536 94.5639 227.647C95.061 227.758 95.4634 227.89 95.771 228.044C96.0786 228.198 96.3057 228.384 96.4524 228.602C96.6026 228.816 96.6777 229.079 96.6777 229.39C96.6777 229.909 96.4703 230.326 96.0554 230.641C95.6405 230.952 95.1022 231.107 94.4405 231.107C93.9755 231.107 93.5642 231.025 93.2065 230.861C92.8488 230.696 92.5681 230.467 92.3642 230.174C92.1639 229.877 92.0637 229.557 92.0637 229.213H93.0563C93.0742 229.546 93.2065 229.811 93.4533 230.007C93.7037 230.201 94.0327 230.297 94.4405 230.297C94.816 230.297 95.1165 230.222 95.3418 230.072C95.5707 229.918 95.6852 229.714 95.6852 229.46ZM101.351 229.46C101.351 229.192 101.249 228.985 101.045 228.838C100.845 228.688 100.492 228.559 99.988 228.452C99.4872 228.344 99.0884 228.216 98.7916 228.065C98.4983 227.915 98.2801 227.736 98.137 227.529C97.9975 227.321 97.9278 227.075 97.9278 226.788C97.9278 226.313 98.1281 225.91 98.5287 225.581C98.9328 225.252 99.4479 225.088 100.074 225.088C100.732 225.088 101.265 225.258 101.673 225.597C102.084 225.937 102.29 226.372 102.29 226.901H101.292C101.292 226.629 101.175 226.395 100.943 226.198C100.714 226.002 100.424 225.903 100.074 225.903C99.7126 225.903 99.43 225.982 99.2261 226.139C99.0223 226.297 98.9203 226.502 98.9203 226.756C98.9203 226.996 99.0151 227.176 99.2047 227.298C99.3942 227.42 99.7358 227.536 100.229 227.647C100.727 227.758 101.129 227.89 101.437 228.044C101.744 228.198 101.971 228.384 102.118 228.602C102.268 228.816 102.343 229.079 102.343 229.39C102.343 229.909 102.136 230.326 101.721 230.641C101.306 230.952 100.768 231.107 100.106 231.107C99.641 231.107 99.2297 231.025 98.872 230.861C98.5144 230.696 98.2336 230.467 98.0297 230.174C97.8294 229.877 97.7293 229.557 97.7293 229.213H98.7218C98.7397 229.546 98.872 229.811 99.1188 230.007C99.3692 230.201 99.6983 230.297 100.106 230.297C100.482 230.297 100.782 230.222 101.007 230.072C101.236 229.918 101.351 229.714 101.351 229.46ZM104.57 225.195L104.597 225.839C105.022 225.338 105.596 225.088 106.319 225.088C107.131 225.088 107.683 225.399 107.977 226.021C108.17 225.742 108.42 225.517 108.728 225.345C109.039 225.174 109.405 225.088 109.828 225.088C111.101 225.088 111.748 225.762 111.77 227.11V231H110.777V227.169C110.777 226.754 110.682 226.445 110.493 226.241C110.303 226.034 109.985 225.93 109.538 225.93C109.169 225.93 108.864 226.041 108.62 226.263C108.377 226.481 108.236 226.776 108.197 227.148V231H107.199V227.196C107.199 226.352 106.786 225.93 105.959 225.93C105.308 225.93 104.863 226.207 104.623 226.762V231H103.631V225.195H104.57ZM116.856 231C116.799 230.886 116.752 230.682 116.716 230.388C116.255 230.868 115.704 231.107 115.064 231.107C114.492 231.107 114.021 230.946 113.653 230.624C113.288 230.299 113.106 229.888 113.106 229.39C113.106 228.786 113.335 228.317 113.792 227.985C114.254 227.649 114.901 227.481 115.735 227.481H116.7V227.024C116.7 226.678 116.597 226.402 116.389 226.198C116.182 225.991 115.876 225.887 115.472 225.887C115.118 225.887 114.821 225.976 114.581 226.155C114.341 226.334 114.222 226.551 114.222 226.804H113.224C113.224 226.515 113.326 226.236 113.529 225.968C113.737 225.696 114.016 225.481 114.366 225.324C114.721 225.166 115.109 225.088 115.531 225.088C116.199 225.088 116.723 225.256 117.103 225.592C117.482 225.925 117.678 226.384 117.693 226.971V229.643C117.693 230.176 117.761 230.599 117.897 230.914V231H116.856ZM115.209 230.244C115.52 230.244 115.815 230.163 116.094 230.002C116.373 229.841 116.575 229.632 116.7 229.374V228.183H115.922C114.706 228.183 114.098 228.539 114.098 229.251C114.098 229.562 114.202 229.805 114.409 229.981C114.617 230.156 114.883 230.244 115.209 230.244ZM120.188 225.195L120.22 225.925C120.663 225.367 121.243 225.088 121.958 225.088C123.185 225.088 123.804 225.78 123.814 227.164V231H122.822V227.159C122.818 226.74 122.722 226.431 122.532 226.23C122.346 226.03 122.055 225.93 121.658 225.93C121.336 225.93 121.053 226.016 120.81 226.188C120.567 226.359 120.377 226.585 120.241 226.864V231H119.249V225.195H120.188ZM134.201 227.346C134.201 228.112 134.072 228.781 133.815 229.353C133.557 229.922 133.193 230.356 132.72 230.657C132.248 230.957 131.697 231.107 131.068 231.107C130.453 231.107 129.907 230.957 129.432 230.657C128.956 230.353 128.586 229.922 128.321 229.364C128.06 228.802 127.926 228.153 127.919 227.416V226.853C127.919 226.102 128.049 225.438 128.31 224.862C128.571 224.286 128.94 223.847 129.415 223.543C129.895 223.235 130.442 223.081 131.057 223.081C131.683 223.081 132.234 223.233 132.71 223.537C133.189 223.838 133.557 224.276 133.815 224.852C134.072 225.424 134.201 226.091 134.201 226.853V227.346ZM133.176 226.842C133.176 225.916 132.99 225.206 132.618 224.712C132.246 224.215 131.726 223.966 131.057 223.966C130.406 223.966 129.893 224.215 129.517 224.712C129.145 225.206 128.954 225.892 128.943 226.772V227.346C128.943 228.244 129.131 228.951 129.507 229.466C129.886 229.977 130.406 230.233 131.068 230.233C131.733 230.233 132.248 229.991 132.613 229.509C132.978 229.022 133.166 228.326 133.176 227.421V226.842ZM135.065 230.48C135.065 230.308 135.115 230.165 135.215 230.05C135.319 229.936 135.473 229.879 135.677 229.879C135.88 229.879 136.034 229.936 136.138 230.05C136.245 230.165 136.299 230.308 136.299 230.48C136.299 230.644 136.245 230.782 136.138 230.893C136.034 231.004 135.88 231.059 135.677 231.059C135.473 231.059 135.319 231.004 135.215 230.893C135.115 230.782 135.065 230.644 135.065 230.48ZM146.568 228.521C146.471 229.348 146.165 229.986 145.65 230.437C145.139 230.884 144.457 231.107 143.606 231.107C142.683 231.107 141.943 230.776 141.385 230.115C140.831 229.453 140.553 228.568 140.553 227.459V226.708C140.553 225.982 140.682 225.343 140.94 224.793C141.201 224.242 141.569 223.82 142.045 223.526C142.521 223.23 143.071 223.081 143.697 223.081C144.527 223.081 145.192 223.314 145.693 223.779C146.194 224.24 146.485 224.88 146.568 225.699H145.532C145.443 225.077 145.248 224.626 144.947 224.347C144.651 224.068 144.234 223.929 143.697 223.929C143.039 223.929 142.522 224.172 142.147 224.658C141.775 225.145 141.589 225.837 141.589 226.735V227.491C141.589 228.339 141.766 229.013 142.12 229.514C142.474 230.015 142.97 230.265 143.606 230.265C144.178 230.265 144.617 230.136 144.921 229.879C145.228 229.618 145.432 229.165 145.532 228.521H146.568ZM147.845 230.48C147.845 230.308 147.895 230.165 147.995 230.05C148.099 229.936 148.252 229.879 148.456 229.879C148.66 229.879 148.814 229.936 148.918 230.05C149.025 230.165 149.079 230.308 149.079 230.48C149.079 230.644 149.025 230.782 148.918 230.893C148.814 231.004 148.66 231.059 148.456 231.059C148.252 231.059 148.099 231.004 147.995 230.893C147.895 230.782 147.845 230.644 147.845 230.48Z" fill="white"/>
<path d="M152.539 212.411C152.539 212.411 154.149 166.597 163.337 162.017C172.525 157.436 210.303 159.263 218.546 161.558C226.789 163.853 233.385 196.546 235.5 201.648C239.396 211.034 254.056 216.308 254.056 216.308L252.679 235.547L165.632 235.097C165.632 235.097 155.292 233.028 152.539 212.411Z" fill="#2D01BC"/>
<path d="M179.103 160.262C178.53 161.129 178.305 162.18 178.473 163.205C178.78 166.079 179.961 168.79 181.857 170.971C183.754 173.134 186.044 174.917 188.606 176.226C189.416 174.228 190.064 170.737 191.747 170.125C193.55 169.712 195.373 169.394 197.209 169.171C197.317 169.027 192.224 168.271 192.053 168.199C188.867 167.416 186.609 165.437 184.44 162.971C183.893 162.399 183.424 161.758 183.045 161.063C182.604 160.163 182.982 158.948 181.722 159.065C181.228 159.083 180.743 159.198 180.294 159.403C179.844 159.609 179.44 159.9 179.103 160.262V160.262Z" fill="url(#paint2_linear)"/>
<path d="M204.787 172.258C205.048 172.564 205.434 172.906 205.794 172.735C205.919 172.658 206.022 172.549 206.091 172.42C206.91 171.052 207.181 169.425 206.847 167.866C206.516 166.318 205.938 164.832 205.137 163.466C204.465 162.142 203.627 160.908 202.645 159.794C202.177 159.299 201.385 158.822 200.845 159.263C200.635 159.477 200.497 159.751 200.449 160.046C200.044 161.639 196.238 167.731 197.191 169.171C197.56 169.738 201.529 169.378 202.195 169.828C203.164 170.517 204.036 171.335 204.787 172.258V172.258Z" fill="url(#paint3_linear)"/>
<path d="M209.79 127.281C209.61 124.806 204.579 123.726 203.778 121.882L211.418 121.576C211.418 121.576 212.318 131.628 208.719 136.541L207.936 134.633C208.881 129.954 210.195 133.04 209.79 127.281Z" fill="#984E45"/>
<path d="M185.457 144.001L182.649 161.153C182.649 161.153 188.948 170.386 196.921 169.009C204.894 167.632 201.961 163.736 201.961 163.736L200.989 149.184C200.989 149.184 194.681 150.687 185.457 144.001Z" fill="#F7AD7E"/>
<path opacity="0.52" d="M184.467 150.021L185.457 144.001C194.681 150.687 199.45 147.844 199.45 147.844L201.682 155.628C200.332 156.951 201.979 161.729 196.633 161.189C192.224 160.757 188.057 154.764 184.467 150.021Z" fill="url(#paint4_linear)"/>
<path d="M178.248 131.547C178.923 141.067 188.678 157.877 198.199 157.194C207.72 156.51 210.465 136.838 209.79 127.317C209.115 117.796 203.769 112.379 194.221 113.054C191.958 113.218 189.749 113.827 187.721 114.845C185.693 115.864 183.885 117.272 182.402 118.989C180.918 120.707 179.788 122.7 179.075 124.854C178.363 127.009 178.082 129.283 178.248 131.547V131.547Z" fill="#F7AD7E"/>
<path d="M186.123 113.297C186.708 113.144 186.888 112.685 187.617 112.064C190.451 109.634 194.447 109.166 198.028 109.553C206.973 110.534 209.034 116.842 211.392 115.852C213.749 114.862 218.042 118.606 215.117 122.854C212.193 127.101 207.432 128.253 201.619 125.427C197.893 123.627 192.737 122.197 188.597 123.241C188.269 123.278 187.952 123.384 187.667 123.551C187.381 123.718 187.134 123.944 186.942 124.212C186.366 125.346 186.645 127.569 186.681 128.811C186.834 131.845 187.204 134.864 187.787 137.846C187.311 137.891 186.96 137.423 186.744 136.991C186.213 135.965 185.844 134.858 185.358 133.823C184.782 132.653 183.711 130.8 182.235 131.754C181.866 132.037 181.557 132.392 181.326 132.797C181.096 133.202 180.949 133.649 180.894 134.111C180.471 136.145 180.795 139.07 182.487 140.5C183.846 141.643 184.242 143.812 184.566 145.459C184.674 145.981 185.205 147.349 185.007 147.826C184.647 148.672 183.405 148.582 182.766 148.069C182.05 147.332 181.587 146.386 181.443 145.369C180.217 140.544 178.448 135.874 176.17 131.448C175.599 130.446 175.126 129.391 174.757 128.298C174.185 125.854 174.364 123.295 175.27 120.955C175.943 118.527 177.295 116.342 179.167 114.656C181.272 112.955 183.063 113.207 185.466 113.324C185.685 113.349 185.906 113.34 186.123 113.297Z" fill="#984E45"/>
<path opacity="0.23" d="M189.884 234.179L191.261 216.308L176.602 214.247L172.012 189.275C172.012 189.275 188.966 204.852 203.221 204.438C217.475 204.024 219.257 198.481 219.257 198.481L221.956 233.765L189.884 234.179Z" fill="url(#paint5_linear)"/>
<path d="M192.665 169.819L194.572 173.032L197.398 175.551L202.437 230.535L212.21 230.229L200.071 174.939L201.52 169.54C201.52 169.54 195.409 168.757 192.665 169.819Z" fill="url(#paint6_linear)"/>
<path d="M188.201 222.877C188.201 222.877 200.422 213.104 204.696 214.319C208.971 215.534 213.56 220.123 213.866 221.653C214.172 223.183 212.067 225.621 209.583 225.927C207.099 226.233 204.391 228.375 202.87 227.727C201.349 227.079 197.677 227.727 196.148 229.527C194.618 231.327 187.59 233.801 187.59 233.801C187.59 233.801 183.009 227.457 188.201 222.877Z" fill="#F7AD7E"/>
<path d="M194.807 235.619H283.95C286.45 235.619 288.477 233.593 288.477 231.093C288.477 228.593 286.45 226.566 283.95 226.566H194.807C192.307 226.566 190.28 228.593 190.28 231.093C190.28 233.593 192.307 235.619 194.807 235.619Z" fill="#2D01BC"/>
<path d="M194.807 235.619H283.95C286.45 235.619 288.477 233.593 288.477 231.093C288.477 228.593 286.45 226.566 283.95 226.566H194.807C192.307 226.566 190.28 228.593 190.28 231.093C190.28 233.593 192.307 235.619 194.807 235.619Z" fill="url(#paint7_linear)"/>
<path d="M229.317 226.935L230.802 231.741L294.11 235.619L312.153 189.86C312.393 189.25 312.481 188.591 312.409 187.94C312.336 187.289 312.106 186.666 311.738 186.124C311.37 185.582 310.875 185.138 310.297 184.831C309.718 184.524 309.073 184.363 308.418 184.361H254.739C252.139 184.363 249.6 185.146 247.451 186.61C245.302 188.073 243.643 190.149 242.69 192.568L229.317 226.935Z" fill="#2D01BC"/>
<path d="M229.317 226.935L230.802 231.741L294.11 235.619L312.153 189.86C312.393 189.25 312.481 188.591 312.409 187.94C312.336 187.289 312.106 186.666 311.738 186.124C311.37 185.582 310.875 185.138 310.297 184.831C309.718 184.524 309.073 184.363 308.418 184.361H254.739C252.139 184.363 249.6 185.146 247.451 186.61C245.302 188.073 243.643 190.149 242.69 192.568L229.317 226.935Z" fill="url(#paint8_linear)"/>
<path d="M229.183 235.673H294.164L311.262 192.208C311.491 191.63 311.575 191.004 311.507 190.386C311.438 189.767 311.22 189.175 310.87 188.661C310.521 188.146 310.051 187.725 309.501 187.433C308.951 187.142 308.339 186.989 307.716 186.989H256.755C254.286 186.989 251.873 187.732 249.831 189.122C247.79 190.512 246.214 192.484 245.309 194.782L229.183 235.673Z" fill="#2D01BC"/>
<path d="M229.183 235.673H294.164L311.262 192.208C311.491 191.63 311.575 191.004 311.507 190.386C311.438 189.767 311.22 189.175 310.87 188.661C310.521 188.146 310.051 187.725 309.501 187.433C308.951 187.142 308.339 186.989 307.716 186.989H256.755C254.286 186.989 251.873 187.732 249.831 189.122C247.79 190.512 246.214 192.484 245.309 194.782L229.183 235.673Z" fill="url(#paint9_linear)"/>
<path d="M357.696 150.606C359.011 148.431 360.011 146.08 360.666 143.623L365.912 142.615L365.966 136.811L366.02 131.007L360.792 129.909C360.182 127.442 359.228 125.073 357.957 122.872L360.954 118.453L356.886 114.314L352.828 110.165L348.328 113.081C346.154 111.772 343.806 110.776 341.354 110.12L340.346 104.874L334.542 104.811L328.738 104.757L327.649 109.949C325.185 110.569 322.817 111.523 320.612 112.784L316.193 109.787L312.054 113.855L307.914 117.922L310.83 122.422C309.515 124.597 308.515 126.948 307.86 129.405L302.614 130.413L302.56 136.217L302.506 142.021L307.734 143.119C308.344 145.586 309.299 147.955 310.569 150.156L307.608 154.584L311.676 158.723L315.743 162.872L320.243 159.956C322.418 161.263 324.766 162.26 327.217 162.917L328.225 168.163L334.029 168.226L339.833 168.28L340.904 163.043C343.37 162.432 345.738 161.481 347.942 160.217L352.36 163.214L356.5 159.146L360.639 155.079L357.696 150.606ZM324.103 146.485C322.131 144.475 320.799 141.926 320.275 139.159C319.752 136.393 320.06 133.533 321.162 130.942C322.264 128.35 324.109 126.144 326.465 124.602C328.821 123.059 331.581 122.25 334.397 122.277C337.212 122.303 339.957 123.164 342.283 124.75C344.61 126.336 346.414 128.577 347.467 131.189C348.52 133.8 348.774 136.665 348.199 139.421C347.624 142.178 346.244 144.702 344.234 146.674C342.9 147.984 341.321 149.019 339.588 149.718C337.854 150.418 335.999 150.769 334.129 150.752C332.26 150.734 330.412 150.348 328.692 149.616C326.971 148.884 325.412 147.82 324.103 146.485V146.485Z" fill="#2D01BC"/>
<path d="M305.313 119.713C306.186 118.262 306.849 116.696 307.284 115.06L310.776 114.395V110.525V106.664L307.302 105.927C306.892 104.287 306.256 102.712 305.412 101.247L307.41 98.3044L304.71 95.5418L302.011 92.7881L299.032 94.7229C297.584 93.8526 296.021 93.1892 294.389 92.7521L293.714 89.2605H289.853H285.984L285.255 92.7431C283.61 93.1443 282.032 93.7776 280.566 94.6239L277.624 92.6351L274.87 95.3348L272.107 98.0345L274.051 101.013C273.18 102.465 272.514 104.031 272.071 105.666L268.58 106.331V110.201V114.062L272.062 114.799C272.472 116.439 273.108 118.014 273.952 119.479L271.954 122.422L274.654 125.184L277.354 127.938L280.332 125.994C281.778 126.871 283.342 127.537 284.976 127.974L285.651 131.466H289.511H293.372L294.11 127.983C295.752 127.576 297.33 126.943 298.798 126.102L301.732 128.091L304.494 125.391L307.248 122.692L305.313 119.713ZM282.942 117.013C281.629 115.676 280.742 113.979 280.394 112.137C280.045 110.296 280.251 108.392 280.984 106.667C281.718 104.943 282.946 103.474 284.514 102.448C286.082 101.421 287.92 100.883 289.794 100.9C291.668 100.918 293.495 101.491 295.043 102.547C296.592 103.603 297.792 105.094 298.493 106.832C299.194 108.57 299.364 110.477 298.981 112.312C298.598 114.147 297.679 115.827 296.341 117.139C294.542 118.893 292.119 119.861 289.606 119.829C287.093 119.797 284.696 118.768 282.942 116.968V117.013Z" fill="#2D01BC"/>
<path d="M27.0662 137.522L26.0493 136.235L57.4646 111.425L86.2522 120.37L117.101 90.8713L141.434 94.4079L162.788 69.8138L164.021 70.8937L142.082 96.1537L117.659 92.6081L86.6842 122.224L57.7976 113.252L27.0662 137.522Z" fill="white"/>
<path d="M90.8059 120.748C90.9148 121.606 90.7667 122.477 90.3804 123.251C89.9941 124.025 89.3869 124.667 88.6356 125.096C87.8843 125.525 87.0226 125.722 86.1597 125.661C85.2967 125.6 84.4712 125.285 83.7875 124.755C83.1038 124.225 82.5926 123.504 82.3187 122.683C82.0448 121.862 82.0205 120.979 82.2487 120.144C82.4769 119.31 82.9475 118.562 83.6009 117.995C84.2543 117.428 85.0612 117.068 85.9195 116.959C87.0698 116.814 88.2307 117.132 89.147 117.842C90.0633 118.552 90.66 119.598 90.8059 120.748V120.748Z" fill="#2D01BC"/>
<path d="M61.8832 112.172C61.9903 113.03 61.8406 113.901 61.453 114.674C61.0654 115.447 60.4574 116.087 59.7057 116.515C58.954 116.943 58.0924 117.138 57.2299 117.076C56.3673 117.014 55.5425 116.697 54.8597 116.167C54.1768 115.636 53.6667 114.915 53.3936 114.094C53.1206 113.274 53.0969 112.391 53.3257 111.557C53.5544 110.723 54.0252 109.975 54.6787 109.409C55.3321 108.842 56.1388 108.482 56.9968 108.374C58.1481 108.232 59.3089 108.551 60.2249 109.263C61.1408 109.975 61.7372 111.021 61.8832 112.172Z" fill="#2D01BC"/>
<path d="M87.1341 126.453C86.1131 126.584 85.0761 126.409 84.1545 125.95C83.2329 125.492 82.4682 124.77 81.9571 123.876C81.4461 122.982 81.2117 121.957 81.2837 120.93C81.3557 119.903 81.7308 118.921 82.3615 118.107C82.9922 117.294 83.8502 116.686 84.8267 116.36C85.8033 116.034 86.8546 116.006 87.8474 116.278C88.8402 116.55 89.73 117.11 90.404 117.889C91.078 118.667 91.5059 119.627 91.6336 120.649C91.8019 122.014 91.4233 123.391 90.5803 124.478C89.7374 125.566 88.4985 126.276 87.1341 126.453V126.453ZM86.0363 117.769C85.3251 117.849 84.6538 118.139 84.1084 118.603C83.5629 119.066 83.168 119.682 82.974 120.37C82.78 121.059 82.7957 121.79 83.0193 122.47C83.2428 123.15 83.6639 123.748 84.2289 124.187C84.7938 124.627 85.4769 124.888 86.1909 124.937C86.9049 124.986 87.6174 124.822 88.2373 124.464C88.8573 124.107 89.3566 123.572 89.6714 122.93C89.9862 122.287 90.1023 121.565 90.0048 120.856C89.8769 119.922 89.3876 119.075 88.6422 118.498C87.8967 117.921 86.9546 117.659 86.0183 117.769H86.0363Z" fill="white"/>
<path d="M121.681 91.4652C121.79 92.3235 121.642 93.1947 121.255 93.9688C120.869 94.7428 120.262 95.3849 119.511 95.8139C118.759 96.2428 117.898 96.4392 117.035 96.3784C116.172 96.3176 115.346 96.0021 114.662 95.4721C113.979 94.942 113.468 94.221 113.194 93.4004C112.92 92.5798 112.895 91.6964 113.124 90.862C113.352 90.0275 113.822 89.2795 114.476 88.7125C115.129 88.1455 115.936 87.785 116.795 87.6767C117.364 87.6036 117.943 87.6436 118.497 87.7946C119.051 87.9456 119.57 88.2045 120.024 88.5565C120.478 88.9084 120.858 89.3465 121.143 89.8457C121.427 90.3449 121.61 90.8952 121.681 91.4652V91.4652Z" fill="#2D01BC"/>
<path d="M117.992 97.1706C116.97 97.3015 115.933 97.1266 115.012 96.6678C114.09 96.2091 113.326 95.4872 112.815 94.5935C112.304 93.6999 112.069 92.6747 112.141 91.6477C112.213 90.6208 112.588 89.6383 113.219 88.8247C113.85 88.0111 114.708 87.4029 115.684 87.0772C116.661 86.7515 117.712 86.723 118.705 86.9951C119.698 87.2672 120.587 87.8279 121.261 88.606C121.935 89.3841 122.363 90.3448 122.491 91.3663C122.659 92.7318 122.281 94.1085 121.438 95.1959C120.595 96.2833 119.356 96.9932 117.992 97.1706V97.1706ZM116.903 88.4866C116.191 88.5666 115.52 88.8569 114.975 89.3202C114.429 89.7836 114.034 90.399 113.84 91.0879C113.646 91.7768 113.662 92.5079 113.886 93.1878C114.109 93.8677 114.53 94.4655 115.095 94.9049C115.66 95.3443 116.343 95.6053 117.057 95.6546C117.771 95.7039 118.484 95.5392 119.104 95.1816C119.724 94.824 120.223 94.2897 120.538 93.647C120.853 93.0043 120.969 92.2823 120.871 91.5732C120.813 91.11 120.665 90.6626 120.434 90.2568C120.203 89.8509 119.895 89.4945 119.526 89.2079C119.158 88.9212 118.736 88.71 118.286 88.5862C117.836 88.4625 117.366 88.4286 116.903 88.4866V88.4866Z" fill="white"/>
<path d="M145.87 94.5789C145.977 95.437 145.827 96.3076 145.44 97.0807C145.052 97.8537 144.444 98.4945 143.692 98.9221C142.941 99.3496 142.079 99.5447 141.217 99.4827C140.354 99.4207 139.529 99.1044 138.846 98.5738C138.164 98.0431 137.653 97.3219 137.38 96.5014C137.107 95.6808 137.084 94.7978 137.312 93.9638C137.541 93.1298 138.012 92.3823 138.665 91.8159C139.319 91.2494 140.126 90.8894 140.984 90.7813C142.134 90.6411 143.294 90.9617 144.209 91.6731C145.125 92.3845 145.722 93.4291 145.87 94.5789V94.5789Z" fill="#2D01BC"/>
<path d="M142.181 100.275C141.162 100.404 140.128 100.228 139.209 99.7692C138.29 99.3104 137.528 98.5895 137.019 97.6976C136.51 96.8057 136.277 95.7829 136.349 94.7586C136.422 93.7342 136.796 92.7543 137.425 91.9427C138.054 91.1311 138.91 90.5242 139.884 90.1989C140.858 89.8736 141.907 89.8444 142.897 90.115C143.888 90.3856 144.776 90.9439 145.449 91.7192C146.123 92.4946 146.551 93.4521 146.68 94.4709C146.851 95.8369 146.473 97.2148 145.63 98.3028C144.786 99.3908 143.546 100.1 142.181 100.275V100.275ZM141.128 91.6002C140.43 91.6878 139.774 91.9804 139.242 92.441C138.711 92.9016 138.328 93.5096 138.142 94.1879C137.956 94.8662 137.976 95.5844 138.198 96.2516C138.421 96.9189 138.836 97.5051 139.392 97.9361C139.948 98.3671 140.619 98.6235 141.32 98.673C142.022 98.7224 142.722 98.5626 143.333 98.2137C143.944 97.8649 144.437 97.3428 144.751 96.7133C145.065 96.0839 145.185 95.3755 145.096 94.6779C145.038 94.2149 144.89 93.7679 144.659 93.3625C144.428 92.9571 144.119 92.6012 143.751 92.3153C143.382 92.0294 142.961 91.8191 142.51 91.6964C142.06 91.5736 141.59 91.541 141.128 91.6002V91.6002Z" fill="white"/>
<path d="M58.2206 117.895C57.1995 118.026 56.1625 117.851 55.2409 117.392C54.3193 116.934 53.5546 116.212 53.0436 115.318C52.5325 114.424 52.2982 113.399 52.3702 112.372C52.4421 111.345 52.8172 110.363 53.4479 109.549C54.0787 108.736 54.9366 108.128 55.9132 107.802C56.8897 107.476 57.941 107.448 58.9338 107.72C59.9266 107.992 60.8164 108.552 61.4904 109.331C62.1644 110.109 62.5923 111.069 62.72 112.091C62.8883 113.456 62.5097 114.833 61.6668 115.92C60.8238 117.008 59.585 117.718 58.2206 117.895V117.895ZM57.1227 109.211C56.4115 109.291 55.7403 109.581 55.1948 110.045C54.6493 110.508 54.2544 111.124 54.0604 111.812C53.8664 112.501 53.8822 113.232 54.1057 113.912C54.3292 114.592 54.7503 115.19 55.3153 115.629C55.8802 116.069 56.5633 116.33 57.2773 116.379C57.9913 116.428 58.7038 116.264 59.3238 115.906C59.9437 115.549 60.443 115.014 60.7578 114.372C61.0726 113.729 61.1887 113.007 61.0912 112.298C61.0334 111.835 60.8848 111.387 60.6541 110.981C60.4233 110.575 60.1149 110.219 59.7463 109.932C59.3778 109.646 58.9564 109.435 58.5063 109.311C58.0561 109.187 57.5859 109.153 57.1227 109.211V109.211Z" fill="white"/>
</g>
<defs>
<linearGradient id="paint0_linear" x1="210.006" y1="217.909" x2="213.533" y2="308.961" gradientUnits="userSpaceOnUse">
<stop offset="0.01"/>
<stop offset="0.83" stop-opacity="0.07"/>
<stop offset="1" stop-opacity="0"/>
</linearGradient>
<linearGradient id="paint1_linear" x1="8720.09" y1="4173.77" x2="8659.63" y2="5734.39" gradientUnits="userSpaceOnUse">
<stop offset="0.01"/>
<stop offset="0.83" stop-opacity="0.07"/>
<stop offset="1" stop-opacity="0"/>
</linearGradient>
<linearGradient id="paint2_linear" x1="179.265" y1="184.073" x2="191.486" y2="157.346" gradientUnits="userSpaceOnUse">
<stop offset="0.01"/>
<stop offset="0.12" stop-opacity="0.75"/>
<stop offset="1" stop-opacity="0"/>
</linearGradient>
<linearGradient id="paint3_linear" x1="2370.16" y1="2844.11" x2="2189.17" y2="2809.91" gradientUnits="userSpaceOnUse">
<stop offset="0.01"/>
<stop offset="0.12" stop-opacity="0.75"/>
<stop offset="1" stop-opacity="0"/>
</linearGradient>
<linearGradient id="paint4_linear" x1="3436.37" y1="2799.19" x2="3686.58" y2="3698.33" gradientUnits="userSpaceOnUse">
<stop offset="0.01"/>
<stop offset="0.83" stop-opacity="0.07"/>
<stop offset="1" stop-opacity="0"/>
</linearGradient>
<linearGradient id="paint5_linear" x1="10208.3" y1="14368.8" x2="10146.9" y2="8766.81" gradientUnits="userSpaceOnUse">
<stop offset="0.01"/>
<stop offset="0.83" stop-opacity="0.07"/>
<stop offset="1" stop-opacity="0"/>
</linearGradient>
<linearGradient id="paint6_linear" x1="3924.92" y1="14380.3" x2="4819.22" y2="14361.1" gradientUnits="userSpaceOnUse">
<stop offset="0.01"/>
<stop offset="0.12" stop-opacity="0.75"/>
<stop offset="1" stop-opacity="0"/>
</linearGradient>
<linearGradient id="paint7_linear" x1="24440.9" y1="2719.56" x2="24441.3" y2="2529.45" gradientUnits="userSpaceOnUse">
<stop offset="0.01"/>
<stop offset="0.12" stop-opacity="0.75"/>
<stop offset="1" stop-opacity="0"/>
</linearGradient>
<linearGradient id="paint8_linear" x1="22770.3" y1="10555.9" x2="23533.2" y2="14719.2" gradientUnits="userSpaceOnUse">
<stop offset="0.01"/>
<stop offset="0.12" stop-opacity="0.75"/>
<stop offset="1" stop-opacity="0"/>
</linearGradient>
<linearGradient id="paint9_linear" x1="23282.2" y1="14224.6" x2="23371.8" y2="10380" gradientUnits="userSpaceOnUse">
<stop offset="0.01"/>
<stop offset="0.12" stop-opacity="0.75"/>
<stop offset="1" stop-opacity="0"/>
</linearGradient>
<clipPath id="clip0">
<rect width="406" height="306" fill="white"/>
</clipPath>
</defs>
</svg>
